<svg width="22" height="21" viewBox="0 0 22 21" fill="none" xmlns="http://www.w3.org/2000/svg">
    <g clip-path="url(#clip0_650_4847)">
        <mask id="mask0_650_4847" style="mask-type:luminance" maskUnits="userSpaceOnUse" x="0" y="0" width="22" height="21">
            <path d="M21.75 0H0.75V21H21.75V0Z" fill="white"/>
        </mask>
        <g mask="url(#mask0_650_4847)">
            <path d="M7.75 0H5.125C2.71262 0 0.75 1.96262 0.75 4.375V7C0.75 7.96513 1.53488 8.75 2.5 8.75H7.75C8.71513 8.75 9.5 7.96513 9.5 7V1.75C9.5 0.784875 8.71513 0 7.75 0ZM2.5 7V4.375C2.5 2.92775 3.67775 1.75 5.125 1.75H7.75V7H2.5ZM13 8.75H18.25C19.2152 8.75 20 7.96513 20 7V4.375C20 1.96262 18.0373 0 15.625 0H13C12.0349 0 11.25 0.784875 11.25 1.75V7C11.25 7.96513 12.0349 8.75 13 8.75ZM13 1.75H15.625C17.0723 1.75 18.25 2.92775 18.25 4.375V7H13V1.75ZM7.75 10.5H2.5C1.53488 10.5 0.75 11.2849 0.75 12.25V14.875C0.75 17.2873 2.71262 19.25 5.125 19.25H7.75C8.71513 19.25 9.5 18.4652 9.5 17.5V12.25C9.5 11.2849 8.71513 10.5 7.75 10.5ZM5.125 17.5C3.67775 17.5 2.5 16.3223 2.5 14.875V12.25H7.75V17.5H5.125ZM21.4937 19.5064L19.2711 17.2839C19.7297 16.5917 20 15.7648 20 14.875C20 12.4626 18.0373 10.5 15.625 10.5C13.2126 10.5 11.25 12.4626 11.25 14.875C11.25 17.2873 13.2126 19.25 15.625 19.25C16.5148 19.25 17.3417 18.9797 18.0339 18.5211L20.2564 20.7437C20.427 20.9143 20.651 21 20.875 21C21.099 21 21.323 20.9143 21.4937 20.7437C21.8357 20.4015 21.8357 19.8485 21.4937 19.5064ZM13 14.875C13 13.4278 14.1778 12.25 15.625 12.25C17.0723 12.25 18.25 13.4278 18.25 14.875C18.25 16.3223 17.0723 17.5 15.625 17.5C14.1778 17.5 13 16.3223 13 14.875Z" fill="#FE5000"/>
        </g>
    </g>
    <defs>
        <clipPath id="clip0_650_4847">
            <rect width="21" height="21" fill="white" transform="translate(0.75)"/>
        </clipPath>
    </defs>
</svg>
