<svg width="22" height="21" viewBox="0 0 22 21" fill="none" xmlns="http://www.w3.org/2000/svg">
    <g clip-path="url(#clip0_650_4843)">
        <path d="M17.125 21H4.875C2.46263 21 0.5 19.0374 0.5 16.625V8.50853C0.5 7.05166 1.221 5.69541 2.4285 4.88166L8.55262 0.748156C10.0393 -0.254594 11.9607 -0.254594 13.4474 0.748156L19.5724 4.88166C20.779 5.69541 21.5 7.05078 21.5 8.50853V16.625C21.5 19.0374 19.5374 21 17.125 21ZM11 1.74741C10.489 1.74741 9.978 1.89791 9.53175 2.19978L3.40675 6.33241C2.68225 6.82066 2.25 7.63353 2.25 8.50766V16.6242C2.25 18.0714 3.42775 19.2492 4.875 19.2492H17.125C18.5723 19.2492 19.75 18.0714 19.75 16.6242V8.50853C19.75 7.63441 19.3178 6.82066 18.5941 6.33328L12.4683 2.19978C12.022 1.89791 11.511 1.74741 11 1.74741Z" fill="#9D9D9D"/>
    </g>
    <defs>
        <clipPath id="clip0_650_4843">
            <rect width="21" height="21" fill="white" transform="translate(0.5)"/>
        </clipPath>
    </defs>
</svg>
