<svg width="22" height="21" viewBox="0 0 22 21" fill="none" xmlns="http://www.w3.org/2000/svg">
    <g clip-path="url(#clip0_650_1313)">
        <mask id="mask0_650_1313" style="mask-type:luminance" maskUnits="userSpaceOnUse" x="0" y="0" width="22" height="21">
            <path d="M21.5 0H0.5V21H21.5V0Z" fill="white"/>
        </mask>
        <g mask="url(#mask0_650_1313)">
            <path d="M11 0C5.21013 0 0.5 4.71013 0.5 10.5C0.5 16.2898 5.21013 21 11 21C16.7898 21 21.5 16.2898 21.5 10.5C21.5 4.71013 16.7898 0 11 0ZM7.5 18.5185V18.375C7.5 16.4447 9.06975 14.875 11 14.875C12.9303 14.875 14.5 16.4447 14.5 18.375V18.5185C13.4272 18.9883 12.2443 19.25 11 19.25C9.75575 19.25 8.57275 18.9883 7.5 18.5185ZM16.1844 17.5446C15.7854 15.043 13.6128 13.125 11 13.125C8.38725 13.125 6.2155 15.043 5.81563 17.5446C3.65437 15.9495 2.25 13.3858 2.25 10.5C2.25 5.67525 6.17525 1.75 11 1.75C15.8247 1.75 19.75 5.67525 19.75 10.5C19.75 13.3858 18.3457 15.9495 16.1844 17.5446ZM11 4.375C9.06975 4.375 7.5 5.94475 7.5 7.875C7.5 9.80525 9.06975 11.375 11 11.375C12.9303 11.375 14.5 9.80525 14.5 7.875C14.5 5.94475 12.9303 4.375 11 4.375ZM11 9.625C10.0349 9.625 9.25 8.84012 9.25 7.875C9.25 6.90988 10.0349 6.125 11 6.125C11.9651 6.125 12.75 6.90988 12.75 7.875C12.75 8.84012 11.9651 9.625 11 9.625Z" fill="#9D9D9D"/>
        </g>
    </g>
    <defs>
        <clipPath id="clip0_650_1313">
            <rect width="21" height="21" fill="white" transform="translate(0.5)"/>
        </clipPath>
    </defs>
</svg>
