<svg width="22" height="21" viewBox="0 0 22 21" fill="none" xmlns="http://www.w3.org/2000/svg">
    <g clip-path="url(#clip0_650_5098)">
        <mask id="mask0_650_5098" style="mask-type:luminance" maskUnits="userSpaceOnUse" x="0" y="0" width="22" height="21">
            <path d="M21.25 0H0.25V21H21.25V0Z" fill="white"/>
        </mask>
        <g mask="url(#mask0_650_5098)">
            <path d="M15.5625 1.67725C14.5773 1.69258 13.6134 1.96762 12.7684 2.47462C11.9234 2.98161 11.2272 3.70259 10.75 4.56475C10.2728 3.70259 9.57656 2.98161 8.73158 2.47462C7.88659 1.96762 6.92279 1.69258 5.9375 1.67725C4.36682 1.7455 2.88699 2.4326 1.8213 3.58846C0.755621 4.74431 0.190712 6.27496 0.249994 7.846C0.249994 11.8246 4.43775 16.1699 7.95 19.116C8.73419 19.775 9.72568 20.1363 10.75 20.1363C11.7743 20.1363 12.7658 19.775 13.55 19.116C17.0622 16.1699 21.25 11.8246 21.25 7.846C21.3093 6.27496 20.7444 4.74431 19.6787 3.58846C18.6131 2.4326 17.1332 1.7455 15.5625 1.67725ZM12.4256 17.7772C11.9566 18.1722 11.3632 18.3888 10.75 18.3888C10.1368 18.3888 9.54338 18.1722 9.07437 17.7772C4.57862 14.0051 2 10.3861 2 7.846C1.94018 6.73888 2.32056 5.65302 3.05819 4.82524C3.79581 3.99746 4.83083 3.49493 5.9375 3.42725C7.04416 3.49493 8.07918 3.99746 8.8168 4.82524C9.55442 5.65302 9.93481 6.73888 9.875 7.846C9.875 8.07807 9.96718 8.30062 10.1313 8.46472C10.2954 8.62881 10.5179 8.721 10.75 8.721C10.9821 8.721 11.2046 8.62881 11.3687 8.46472C11.5328 8.30062 11.625 8.07807 11.625 7.846C11.5652 6.73888 11.9456 5.65302 12.6832 4.82524C13.4208 3.99746 14.4558 3.49493 15.5625 3.42725C16.6691 3.49493 17.7042 3.99746 18.4418 4.82524C19.1794 5.65302 19.5598 6.73888 19.5 7.846C19.5 10.3861 16.9214 14.0051 12.4256 17.7738V17.7772Z" fill="#FE5000"/>
        </g>
    </g>
    <defs>
        <clipPath id="clip0_650_5098">
            <rect width="21" height="21" fill="white" transform="translate(0.25)"/>
        </clipPath>
    </defs>
</svg>
