<svg width="22" height="21" viewBox="0 0 22 21" fill="none" xmlns="http://www.w3.org/2000/svg">
    <g clip-path="url(#clip0_650_1305)">
        <mask id="mask0_650_1305" style="mask-type:luminance" maskUnits="userSpaceOnUse" x="0" y="0" width="22" height="21">
            <path d="M21.25 0H0.25V21H21.25V0Z" fill="white"/>
        </mask>
        <g mask="url(#mask0_650_1305)">
            <path d="M15.5625 1.67725C14.5772 1.69258 13.6133 1.96762 12.7684 2.47462C11.9234 2.98161 11.2272 3.70259 10.75 4.56475C10.2728 3.70259 9.57653 2.98161 8.73155 2.47462C7.88656 1.96762 6.92276 1.69258 5.93747 1.67725C4.36679 1.7455 2.88696 2.4326 1.82127 3.58846C0.75559 4.74431 0.190682 6.27496 0.249964 7.846C0.249964 11.8246 4.43771 16.1699 7.94996 19.116C8.73416 19.775 9.72565 20.1363 10.75 20.1363C11.7743 20.1363 12.7658 19.775 13.5499 19.116C17.0622 16.1699 21.25 11.8246 21.25 7.846C21.3093 6.27496 20.7444 4.74431 19.6786 3.58846C18.613 2.4326 17.1332 1.7455 15.5625 1.67725ZM12.4256 17.7772C11.9566 18.1722 11.3631 18.3888 10.75 18.3888C10.1368 18.3888 9.54335 18.1722 9.07434 17.7772C4.57859 14.0051 1.99997 10.3861 1.99997 7.846C1.94015 6.73888 2.32053 5.65302 3.05816 4.82524C3.79578 3.99746 4.8308 3.49493 5.93747 3.42725C7.04413 3.49493 8.07915 3.99746 8.81677 4.82524C9.55439 5.65302 9.93478 6.73888 9.87497 7.846C9.87497 8.07807 9.96715 8.30062 10.1312 8.46472C10.2953 8.62881 10.5179 8.721 10.75 8.721C10.982 8.721 11.2046 8.62881 11.3687 8.46472C11.5328 8.30062 11.625 8.07807 11.625 7.846C11.5652 6.73888 11.9455 5.65302 12.6832 4.82524C13.4208 3.99746 14.4558 3.49493 15.5625 3.42725C16.6691 3.49493 17.7041 3.99746 18.4417 4.82524C19.1794 5.65302 19.5597 6.73888 19.5 7.846C19.5 10.3861 16.9213 14.0051 12.4256 17.7738V17.7772Z" fill="#9D9D9D"/>
        </g>
    </g>
    <defs>
        <clipPath id="clip0_650_1305">
            <rect width="21" height="21" fill="white" transform="translate(0.25)"/>
        </clipPath>
    </defs>
</svg>

