<svg width="22" height="21" viewBox="0 0 22 21" fill="none" xmlns="http://www.w3.org/2000/svg">
    <g clip-path="url(#clip0_650_4389)">
        <path d="M20.3739 3.56738C20.1278 3.27201 19.8196 3.03446 19.4713 2.87159C19.1231 2.70872 18.7432 2.62453 18.3587 2.625H4.21175L4.175 2.31787C4.09979 1.67949 3.79296 1.09089 3.31268 0.663668C2.8324 0.236445 2.21205 0.000299069 1.56925 0L1.375 0C1.14294 0 0.920376 0.0921872 0.756282 0.256282C0.592187 0.420376 0.5 0.642936 0.5 0.875C0.5 1.10706 0.592187 1.32962 0.756282 1.49372C0.920376 1.65781 1.14294 1.75 1.375 1.75H1.56925C1.78357 1.75003 1.99042 1.82871 2.15058 1.97113C2.31073 2.11354 2.41305 2.30978 2.43812 2.52262L3.64213 12.7601C3.76712 13.8248 4.27867 14.8066 5.07967 15.519C5.88067 16.2315 6.91537 16.625 7.98738 16.625H17.125C17.3571 16.625 17.5796 16.5328 17.7437 16.3687C17.9078 16.2046 18 15.9821 18 15.75C18 15.5179 17.9078 15.2954 17.7437 15.1313C17.5796 14.9672 17.3571 14.875 17.125 14.875H7.98738C7.4458 14.8735 6.91795 14.7045 6.47619 14.3912C6.03444 14.0779 5.7004 13.6356 5.51988 13.125H15.9499C16.9756 13.1251 17.9688 12.7647 18.7558 12.1069C19.5429 11.4491 20.0738 10.5356 20.2557 9.52612L20.9426 5.71637C21.0112 5.33838 20.9958 4.94993 20.8975 4.57856C20.7992 4.20718 20.6204 3.86197 20.3739 3.56738ZM19.225 5.40575L18.5373 9.2155C18.428 9.82187 18.1089 10.3705 17.6359 10.7653C17.1628 11.1601 16.566 11.3759 15.9499 11.375H5.24163L4.41825 4.375H18.3587C18.4873 4.37423 18.6144 4.40179 18.7311 4.45572C18.8478 4.50965 18.9511 4.58863 19.0338 4.68703C19.1165 4.78543 19.1765 4.90085 19.2096 5.02507C19.2426 5.14929 19.2479 5.27926 19.225 5.40575Z" fill="#FE5000"/>
        <path d="M6.625 21C7.5915 21 8.375 20.2165 8.375 19.25C8.375 18.2835 7.5915 17.5 6.625 17.5C5.6585 17.5 4.875 18.2835 4.875 19.25C4.875 20.2165 5.6585 21 6.625 21Z" fill="#FE5000"/>
        <path d="M15.375 21C16.3415 21 17.125 20.2165 17.125 19.25C17.125 18.2835 16.3415 17.5 15.375 17.5C14.4085 17.5 13.625 18.2835 13.625 19.25C13.625 20.2165 14.4085 21 15.375 21Z" fill="#FE5000"/>
    </g>
    <defs>
        <clipPath id="clip0_650_4389">
            <rect width="21" height="21" fill="white" transform="translate(0.5)"/>
        </clipPath>
    </defs>
</svg>
