<svg width="18" height="20" viewBox="0 0 18 20" fill="none" xmlns="http://www.w3.org/2000/svg">
    <path d="M9.00012 0.0349121C6.79507 0.037338 4.68101 0.914308 3.12173 2.47344C1.56245 4.03256 0.685264 6.14653 0.682617 8.35158C0.682617 10.4932 2.34095 13.8449 5.61178 18.3132C6.00117 18.8467 6.511 19.2807 7.09979 19.5798C7.68857 19.879 8.33968 20.0349 9.00012 20.0349C9.66055 20.0349 10.3117 19.879 10.9004 19.5798C11.4892 19.2807 11.9991 18.8467 12.3885 18.3132C15.6593 13.8449 17.3176 10.4932 17.3176 8.35158C17.315 6.14653 16.4378 4.03256 14.8785 2.47344C13.3192 0.914308 11.2052 0.037338 9.00012 0.0349121ZM9.00012 11.6666C8.34085 11.6666 7.69638 11.4711 7.14822 11.1048C6.60005 10.7385 6.17281 10.2179 5.92052 9.60886C5.66823 8.99977 5.60222 8.32955 5.73083 7.68294C5.85945 7.03634 6.17692 6.4424 6.64309 5.97622C7.10927 5.51005 7.70321 5.19258 8.34982 5.06396C8.99642 4.93534 9.66664 5.00136 10.2757 5.25365C10.8848 5.50594 11.4054 5.93318 11.7717 6.48135C12.138 7.02951 12.3335 7.67397 12.3335 8.33325C12.3335 9.2173 11.9823 10.0651 11.3571 10.6903C10.732 11.3154 9.88417 11.6666 9.00012 11.6666Z" fill="#C4C4C4"/>
</svg>
