<svg width="7" height="12" viewBox="0 0 7 12" fill="none" xmlns="http://www.w3.org/2000/svg">
    <path d="M5.83346 4.23335L2.00841 0.408353C1.85228 0.25314 1.64106 0.166016 1.42091 0.166016C1.20075 0.166016 0.989552 0.25314 0.833414 0.408353C0.755302 0.485815 0.693314 0.577978 0.651002 0.679528C0.608689 0.781078 0.586914 0.890003 0.586914 1.00002C0.586914 1.11003 0.608689 1.21894 0.651002 1.32049C0.693314 1.42204 0.755302 1.51422 0.833414 1.59168L4.66674 5.40835C4.74485 5.48582 4.80685 5.57798 4.84915 5.67953C4.89146 5.78108 4.91324 5.89 4.91324 6.00002C4.91324 6.11003 4.89146 6.21894 4.84915 6.32049C4.80685 6.42204 4.74485 6.51422 4.66674 6.59168L0.833414 10.4083C0.676489 10.5642 0.587889 10.7759 0.587114 10.9971C0.586327 11.2182 0.673427 11.4306 0.829239 11.5876C0.985064 11.7444 1.19683 11.8331 1.41796 11.8338C1.6391 11.8346 1.85149 11.7474 2.00841 11.5917L5.83346 7.76668C6.30159 7.29793 6.56459 6.66252 6.56459 6.00002C6.56459 5.33752 6.30159 4.7021 5.83346 4.23335Z" fill="#C4C4C4"/>
</svg>
