<svg width="16" height="16" viewBox="0 0 16 16" fill="none" xmlns="http://www.w3.org/2000/svg">
    <path d="M12.4733 5.47332C12.4113 5.41084 12.3376 5.36124 12.2564 5.32739C12.1751 5.29355 12.088 5.27612 12 5.27612C11.912 5.27612 11.8248 5.29355 11.7436 5.32739C11.6624 5.36124 11.5886 5.41084 11.5267 5.47332L8.47332 8.52666C8.41135 8.58914 8.33761 8.63874 8.25637 8.67258C8.17513 8.70643 8.088 8.72385 7.99999 8.72385C7.91198 8.72385 7.82484 8.70643 7.7436 8.67258C7.66237 8.63874 7.58863 8.58914 7.52666 8.52666L4.47332 5.47332C4.41135 5.41084 4.33761 5.36124 4.25637 5.32739C4.17513 5.29355 4.088 5.27612 3.99999 5.27612C3.91198 5.27612 3.82484 5.29355 3.7436 5.32739C3.66237 5.36124 3.58863 5.41084 3.52666 5.47332C3.40249 5.59823 3.33279 5.7672 3.33279 5.94332C3.33279 6.11945 3.40249 6.28841 3.52666 6.41332L6.58666 9.47332C6.96166 9.84786 7.46999 10.0582 7.99999 10.0582C8.52999 10.0582 9.03832 9.84786 9.41332 9.47332L12.4733 6.41332C12.5975 6.28841 12.6672 6.11945 12.6672 5.94332C12.6672 5.7672 12.5975 5.59823 12.4733 5.47332Z" fill="black"/>
</svg>
