<svg width="24" height="24" viewBox="0 0 24 24" fill="none" xmlns="http://www.w3.org/2000/svg">
    <path d="M10.6001 12.7099C10.5064 12.617 10.432 12.5064 10.3812 12.3845C10.3304 12.2627 10.3043 12.132 10.3043 11.9999C10.3043 11.8679 10.3304 11.7372 10.3812 11.6154C10.432 11.4935 10.5064 11.3829 10.6001 11.2899L15.1902 6.70994C15.2838 6.61699 15.3582 6.50638 15.409 6.38452C15.4597 6.26266 15.486 6.13196 15.486 5.99995C15.486 5.86793 15.4597 5.73722 15.409 5.61536C15.3582 5.4935 15.2838 5.38291 15.1902 5.28995C15.0027 5.1037 14.7493 4.99915 14.4851 4.99915C14.2209 4.99915 13.9675 5.1037 13.7801 5.28995L9.19009 9.87995C8.6283 10.4425 8.31274 11.2049 8.31274 11.9999C8.31274 12.7949 8.6283 13.5574 9.19009 14.1199L13.7801 18.71C13.9664 18.8948 14.2178 18.9989 14.4801 18.9999C14.6117 19.0007 14.7422 18.9755 14.864 18.9257C14.9858 18.876 15.0967 18.8027 15.1902 18.71C15.2838 18.617 15.3582 18.5064 15.409 18.3845C15.4597 18.2627 15.486 18.132 15.486 18C15.486 17.868 15.4597 17.7372 15.409 17.6154C15.3582 17.4935 15.2838 17.3829 15.1902 17.2899L10.6001 12.7099Z" fill="black"/>
</svg>
