<svg width="40" height="40" viewBox="0 0 40 40" fill="none" xmlns="http://www.w3.org/2000/svg">
    <rect width="40" height="40" rx="8" fill="#FFE7E6"/>
    <g clip-path="url(#clip0_756_12931)">
        <path d="M23.3332 16.6666C23.1769 16.5104 22.965 16.4226 22.744 16.4226C22.5231 16.4226 22.3112 16.5104 22.1549 16.6666L19.9999 18.8216L17.8449 16.6666C17.6877 16.5148 17.4772 16.4308 17.2587 16.4327C17.0402 16.4346 16.8312 16.5222 16.6767 16.6767C16.5222 16.8313 16.4345 17.0403 16.4326 17.2588C16.4308 17.4773 16.5147 17.6878 16.6665 17.8449L18.8215 19.9999L16.6665 22.1549C16.5147 22.3121 16.4308 22.5226 16.4326 22.7411C16.4345 22.9596 16.5222 23.1686 16.6767 23.3231C16.8312 23.4776 17.0402 23.5653 17.2587 23.5672C17.4772 23.5691 17.6877 23.4851 17.8449 23.3333L19.9999 21.1783L22.1549 23.3333C22.312 23.4851 22.5225 23.5691 22.741 23.5672C22.9595 23.5653 23.1686 23.4776 23.3231 23.3231C23.4776 23.1686 23.5652 22.9596 23.5671 22.7411C23.569 22.5226 23.485 22.3121 23.3332 22.1549L21.1782 19.9999L23.3332 17.8449C23.4894 17.6887 23.5772 17.4767 23.5772 17.2558C23.5772 17.0348 23.4894 16.8229 23.3332 16.6666Z" fill="#FF2A0C"/>
        <path d="M20 10C18.0222 10 16.0888 10.5865 14.4443 11.6853C12.7998 12.7841 11.5181 14.3459 10.7612 16.1732C10.0043 18.0004 9.8063 20.0111 10.1922 21.9509C10.578 23.8907 11.5304 25.6725 12.9289 27.0711C14.3275 28.4696 16.1093 29.422 18.0491 29.8079C19.9889 30.1937 21.9996 29.9957 23.8268 29.2388C25.6541 28.4819 27.2159 27.2002 28.3147 25.5557C29.4135 23.9112 30 21.9778 30 20C29.9971 17.3487 28.9426 14.8068 27.0679 12.9321C25.1932 11.0574 22.6513 10.0029 20 10ZM20 28.3333C18.3518 28.3333 16.7407 27.8446 15.3703 26.9289C13.9998 26.0132 12.9317 24.7117 12.301 23.189C11.6703 21.6663 11.5053 19.9908 11.8268 18.3742C12.1483 16.7577 12.942 15.2729 14.1074 14.1074C15.2729 12.942 16.7577 12.1483 18.3743 11.8268C19.9908 11.5052 21.6663 11.6703 23.189 12.301C24.7118 12.9317 26.0132 13.9998 26.9289 15.3702C27.8446 16.7407 28.3333 18.3518 28.3333 20C28.3309 22.2094 27.4522 24.3276 25.8899 25.8899C24.3276 27.4522 22.2094 28.3309 20 28.3333Z" fill="#FF2A0C"/>
    </g>
    <defs>
        <clipPath id="clip0_756_12931">
            <rect width="20" height="20" fill="white" transform="translate(10 10)"/>
        </clipPath>
    </defs>
</svg>
