<svg width="20" height="20" viewBox="0 0 20 20" fill="none" xmlns="http://www.w3.org/2000/svg">
    <mask id="mask0_782_2814" style="mask-type:luminance" maskUnits="userSpaceOnUse" x="0" y="0" width="20" height="20">
        <path d="M20 0H0V20H20V0Z" fill="white"/>
    </mask>
    <g mask="url(#mask0_782_2814)">
        <path d="M15.8334 2.5H4.16666C3.062 2.50133 2.00296 2.94074 1.22185 3.72185C0.440735 4.50296 0.00132321 5.562 0 6.66666H20C19.9986 5.562 19.5592 4.50296 18.7781 3.72185C17.997 2.94074 16.938 2.50133 15.8334 2.5Z" fill="#C4C4C4"/>
        <path d="M0 13.3334C0.00132321 14.4382 0.440735 15.4972 1.22185 16.2783C2.00296 17.0594 3.062 17.4988 4.16666 17.5002H15.8334C16.938 17.4988 17.997 17.0594 18.7781 16.2783C19.5592 15.4972 19.9986 14.4382 20 13.3334V8.3335H0V13.3334ZM5.83334 12.9168C5.83334 13.1641 5.76003 13.4057 5.62267 13.6113C5.48532 13.8168 5.2901 13.9771 5.06169 14.0717C4.83327 14.1663 4.58195 14.1911 4.33948 14.1428C4.097 14.0946 3.87426 13.9756 3.69945 13.8007C3.52464 13.6259 3.40559 13.4032 3.35735 13.1607C3.30912 12.9182 3.33387 12.6669 3.42849 12.4385C3.52309 12.2101 3.68331 12.0148 3.88888 11.8775C4.09444 11.7401 4.33611 11.6668 4.58334 11.6668C4.91485 11.6668 5.2328 11.7985 5.46721 12.0329C5.70164 12.2674 5.83334 12.5853 5.83334 12.9168Z" fill="#C4C4C4"/>
    </g>
</svg>
