<svg width="20" height="20" viewBox="0 0 20 20" fill="none" xmlns="http://www.w3.org/2000/svg">
    <mask id="mask0_967_1929" style="mask-type:luminance" maskUnits="userSpaceOnUse" x="0" y="0" width="20" height="20">
        <path d="M20 0H0V20H20V0Z" fill="white"/>
    </mask>
    <g mask="url(#mask0_967_1929)">
        <path d="M4.5835 14.1668C5.27385 14.1668 5.8335 13.6072 5.8335 12.9168C5.8335 12.2264 5.27385 11.6667 4.5835 11.6667C3.89313 11.6667 3.3335 12.2264 3.3335 12.9168C3.3335 13.6072 3.89313 14.1668 4.5835 14.1668Z" fill="#FE5000"/>
        <path d="M15.8334 2.5H4.16666C3.062 2.50133 2.00296 2.94074 1.22185 3.72185C0.440735 4.50296 0.00132321 5.562 0 6.66666V13.3334C0.00132321 14.438 0.440735 15.497 1.22185 16.2781C2.00296 17.0592 3.062 17.4986 4.16666 17.5H15.8334C16.938 17.4986 17.997 17.0592 18.7781 16.2781C19.5592 15.497 19.9986 14.438 20 13.3334V6.66666C19.9986 5.562 19.5592 4.50296 18.7781 3.72185C17.997 2.94074 16.938 2.50133 15.8334 2.5ZM4.16666 4.16666H15.8334C16.4964 4.16666 17.1322 4.43006 17.6011 4.8989C18.07 5.36774 18.3334 6.00363 18.3334 6.66666H1.66666C1.66666 6.00363 1.93006 5.36774 2.3989 4.8989C2.86774 4.43006 3.50362 4.16666 4.16666 4.16666ZM15.8334 15.8334H4.16666C3.50362 15.8334 2.86774 15.57 2.3989 15.1011C1.93006 14.6322 1.66666 13.9964 1.66666 13.3334V8.33334H18.3334V13.3334C18.3334 13.9964 18.07 14.6322 17.6011 15.1011C17.1322 15.57 16.4964 15.8334 15.8334 15.8334Z" fill="#FE5000"/>
    </g>
</svg>
