<svg width="20" height="20" viewBox="0 0 20 20" fill="none" xmlns="http://www.w3.org/2000/svg">
    <g clip-path="url(#clip0_747_11731)">
        <mask id="mask0_747_11731" style="mask-type:luminance" maskUnits="userSpaceOnUse" x="0" y="0" width="20" height="20">
            <path d="M20 0H0V20H20V0Z" fill="white"/>
        </mask>
        <g mask="url(#mask0_747_11731)">
            <path d="M13.75 0C10.245 0 7.5 1.6475 7.5 3.75V5.90584C7.0975 5.85834 6.67916 5.83334 6.25 5.83334C2.745 5.83334 0 7.48084 0 9.58334V16.25C0 18.3525 2.745 20 6.25 20C9.08916 20 11.43 18.9191 12.2167 17.3909C12.715 17.4634 13.2284 17.5 13.75 17.5C17.255 17.5 20 15.8525 20 13.75V3.75C20 1.6475 17.255 0 13.75 0ZM18.3334 10.4167C18.3334 11.4 16.3734 12.5 13.75 12.5C13.3234 12.5 12.905 12.4708 12.5 12.4142V10.7608C12.9084 10.8083 13.3266 10.8333 13.75 10.8333C15.5784 10.8333 17.2 10.385 18.3334 9.6575V10.4167ZM1.66666 12.1575C2.8 12.885 4.42166 13.3334 6.25 13.3334C8.07834 13.3334 9.7 12.885 10.8333 12.1575V12.9166C10.8333 13.9 8.87334 15 6.25 15C3.62666 15 1.66666 13.9 1.66666 12.9166V12.1575ZM18.3334 7.08334C18.3334 8.06666 16.3734 9.16666 13.75 9.16666C13.3041 9.16666 12.8666 9.135 12.445 9.07334C12.2842 8.33416 11.7783 7.67 11.0233 7.1375C11.8433 7.37084 12.7666 7.5 13.75 7.5C15.5784 7.5 17.2 7.05166 18.3334 6.32416V7.08334ZM13.75 1.66666C16.3734 1.66666 18.3334 2.76666 18.3334 3.75C18.3334 4.73334 16.3734 5.83334 13.75 5.83334C11.1267 5.83334 9.16666 4.73334 9.16666 3.75C9.16666 2.76666 11.1267 1.66666 13.75 1.66666ZM6.25 7.5C8.87334 7.5 10.8333 8.6 10.8333 9.58334C10.8333 10.5667 8.87334 11.6667 6.25 11.6667C3.62666 11.6667 1.66666 10.5667 1.66666 9.58334C1.66666 8.6 3.62666 7.5 6.25 7.5ZM6.25 18.3334C3.62666 18.3334 1.66666 17.2334 1.66666 16.25V15.4909C2.8 16.2184 4.42166 16.6666 6.25 16.6666C8.07834 16.6666 9.7 16.2184 10.8333 15.4909V16.25C10.8333 17.2334 8.87334 18.3334 6.25 18.3334ZM13.75 15.8334C13.3234 15.8334 12.905 15.8041 12.5 15.7475V14.0941C12.9084 14.1416 13.3266 14.1666 13.75 14.1666C15.5784 14.1666 17.2 13.7184 18.3334 12.9909V13.75C18.3334 14.7334 16.3734 15.8334 13.75 15.8334Z" fill="#FE5000"/>
        </g>
    </g>
    <defs>
        <clipPath id="clip0_747_11731">
            <rect width="20" height="20" fill="white"/>
        </clipPath>
    </defs>
</svg>
