<svg width="20" height="20" viewBox="0 0 20 20" fill="none" xmlns="http://www.w3.org/2000/svg">
    <g clip-path="url(#clip0_1145_5279)">
        <path d="M13.9408 14.8591C14.4292 15.3474 14.4292 16.1391 13.9408 16.6266C13.4525 17.1149 12.6608 17.1149 12.1733 16.6266L8.31167 12.7649C7.98583 12.4391 7.45833 12.4391 7.13333 12.7649C6.8075 13.0908 6.8075 13.6183 7.13333 13.9433L10.6425 17.4524C11.1308 17.9408 11.1308 18.7324 10.6425 19.2199C10.1542 19.7083 9.3625 19.7083 8.875 19.2199L4.98083 15.3258C2.5175 12.9224 0 9.71825 0 6.66658C0 3.44992 2.43 0.833252 5.41667 0.833252C6.89417 0.833252 8.02583 1.38492 8.8875 1.99742L5.855 5.00409C5.30333 5.55492 5 6.28825 5 7.06742C5 7.84659 5.30333 8.57908 5.85333 9.12908C6.40417 9.68075 7.13667 9.98409 7.91667 9.98409C8.27167 9.98409 8.61417 9.91325 8.9375 9.79325L13.9417 14.8599L13.9408 14.8591ZM12.0175 7.10408L10.2742 8.83575L15.3658 13.8508C15.8542 14.3391 16.6458 14.3391 17.1333 13.8508C17.88 13.1041 17.2408 12.2774 17.2408 12.2774L12.0175 7.10408ZM14.5475 0.881585C13.1858 0.889919 11.8925 1.48159 10.8958 2.40992L7.03167 6.24825C6.54333 6.73659 6.54333 7.52825 7.03167 8.01575C7.52 8.50409 8.31167 8.50409 8.79917 8.01575L10.88 5.94909C11.53 5.30325 12.5783 5.30325 13.2292 5.94909L18.4992 11.1808C19.4917 9.57909 19.9983 8.07908 19.9983 6.71492C19.9983 3.49825 17.5333 0.881585 14.5467 0.881585H14.5475Z" fill="#C4C4C4"/>
    </g>
    <defs>
        <clipPath id="clip0_1145_5279">
            <rect width="20" height="20" fill="white"/>
        </clipPath>
    </defs>
</svg>
