<svg width="24" height="23" viewBox="0 0 24 23" fill="none" xmlns="http://www.w3.org/2000/svg">
    <path d="M17.5 0.917236C16.374 0.934741 15.2724 1.24908 14.3067 1.8285C13.341 2.40792 12.5453 3.2319 12 4.21724C11.4546 3.2319 10.6589 2.40792 9.69319 1.8285C8.72749 1.24908 7.62601 0.934741 6.49996 0.917236C4.7049 0.995221 3.01366 1.78049 1.79574 3.10146C0.577818 4.42244 -0.0677923 6.17175 -4.17037e-05 7.96724C-4.17037e-05 12.5142 4.78596 17.4803 8.79996 20.8472C9.69618 21.6003 10.8293 22.0133 12 22.0133C13.1706 22.0133 14.3037 21.6003 15.1999 20.8472C19.2139 17.4803 24 12.5142 24 7.96724C24.0678 6.17175 23.4222 4.42244 22.2042 3.10146C20.9863 1.78049 19.2951 0.995221 17.5 0.917236ZM13.915 19.3172C13.3789 19.7687 12.7007 20.0162 12 20.0162C11.2992 20.0162 10.621 19.7687 10.085 19.3172C4.94695 15.0062 1.99996 10.8702 1.99996 7.96724C1.93159 6.70194 2.36632 5.46096 3.20932 4.51493C4.05232 3.56891 5.23519 2.99459 6.49996 2.91723C7.76472 2.99459 8.9476 3.56891 9.79059 4.51493C10.6336 5.46096 11.0683 6.70194 11 7.96724C11 8.23245 11.1053 8.48681 11.2929 8.67434C11.4804 8.86188 11.7347 8.96723 12 8.96723C12.2652 8.96723 12.5195 8.86188 12.7071 8.67434C12.8946 8.48681 13 8.23245 13 7.96724C12.9316 6.70194 13.3663 5.46096 14.2093 4.51493C15.0523 3.56891 16.2352 2.99459 17.5 2.91723C18.7647 2.99459 19.9476 3.56891 20.7906 4.51493C21.6336 5.46096 22.0683 6.70194 22 7.96724C22 10.8702 19.053 15.0062 13.915 19.3133V19.3172Z" fill="#9D9D9D"/>
</svg>
