<svg width="24" height="23" viewBox="0 0 24 23" fill="none" xmlns="http://www.w3.org/2000/svg">
    <path d="M17.5 0.917236C16.374 0.934741 15.2724 1.24908 14.3067 1.8285C13.341 2.40792 12.5453 3.2319 12 4.21724C11.4546 3.2319 10.6589 2.40792 9.69319 1.8285C8.72749 1.24908 7.62601 0.934741 6.49996 0.917236C4.7049 0.995221 3.01366 1.78049 1.79574 3.10146C0.577818 4.42244 -0.0677923 6.17175 -4.17037e-05 7.96724C-4.17037e-05 12.5142 4.78596 17.4803 8.79996 20.8472C9.69618 21.6003 10.8293 22.0133 12 22.0133C13.1706 22.0133 14.3037 21.6003 15.1999 20.8472C19.2139 17.4803 24 12.5142 24 7.96724C24.0678 6.17175 23.4222 4.42244 22.2042 3.10146C20.9863 1.78049 19.2951 0.995221 17.5 0.917236Z" fill="#FF5836"/>
</svg>
