<svg width="20" height="20" viewBox="0 0 20 20" fill="none" xmlns="http://www.w3.org/2000/svg">
    <g clip-path="url(#clip0_853_24998)">
        <path d="M4.89694 7.83325C4.86527 7.83325 4.83777 7.85492 4.83111 7.88575L4.15527 10.7499H5.61944L4.96361 7.88575C4.95611 7.85492 4.92861 7.83325 4.89694 7.83325Z" fill="#C4C4C4"/>
        <path d="M15.833 3.33325H10.833V16.6666H15.833C18.1305 16.6666 19.9997 14.7974 19.9997 12.4999V7.49992C19.9997 5.20242 18.1305 3.33325 15.833 3.33325ZM18.333 8.03075C18.333 8.31409 18.103 8.54409 17.8197 8.54409H17.5563C17.4555 9.60659 17.0422 10.8199 16.2172 11.7658C16.6688 12.0399 17.2105 12.2358 17.8705 12.2983C18.133 12.3233 18.333 12.5449 18.333 12.8091V12.8266C18.333 13.1316 18.0697 13.3666 17.7663 13.3374C16.8188 13.2466 16.0505 12.9299 15.4263 12.4858C14.7988 12.9341 14.0213 13.2483 13.0663 13.3374C12.763 13.3658 12.5005 13.1308 12.5005 12.8266V12.8091C12.5005 12.5416 12.7072 12.3224 12.9738 12.2974C13.6305 12.2349 14.1722 12.0416 14.6213 11.7683C14.3455 11.4524 14.1155 11.1066 13.9272 10.7458C13.7497 10.4058 14.0013 9.99908 14.3855 9.99908H14.3938C14.5822 9.99908 14.758 10.1008 14.8447 10.2683C14.9988 10.5616 15.1913 10.8441 15.4222 11.1033C16.1038 10.3366 16.4155 9.34659 16.508 8.54409H13.0155C12.7322 8.54409 12.5022 8.31409 12.5022 8.03075V8.01325C12.5022 7.72992 12.7322 7.49992 13.0155 7.49992H14.8963V7.17992C14.8963 6.89659 15.1263 6.66659 15.4097 6.66659H15.4272C15.7105 6.66659 15.9405 6.89659 15.9405 7.17992V7.49992H17.8213C18.1047 7.49992 18.3347 7.72992 18.3347 8.01325V8.03075H18.333Z" fill="#C4C4C4"/>
        <path d="M9.16667 3.33325H4.16667C1.865 3.33325 0 5.19909 0 7.49992V12.4999C0 14.8016 1.865 16.6666 4.16667 16.6666H9.16667V3.33325ZM6.675 13.3333C6.40333 13.3333 6.1675 13.1458 6.10667 12.8808L5.88583 11.9166H3.87833L3.65 12.8841C3.5875 13.1474 3.35333 13.3333 3.0825 13.3333C2.70667 13.3333 2.42917 12.9824 2.515 12.6166L3.6925 7.62242C3.86 6.90075 4.64 6.45075 5.40583 6.77159C5.77167 6.92492 6.0175 7.27659 6.1075 7.66325L7.24333 12.6199C7.32667 12.9849 7.05 13.3333 6.675 13.3333Z" fill="#C4C4C4"/>
    </g>
    <defs>
        <clipPath id="clip0_853_24998">
            <rect width="20" height="20" fill="white"/>
        </clipPath>
    </defs>
</svg>
