<svg width="20" height="20" viewBox="0 0 20 20" fill="none" xmlns="http://www.w3.org/2000/svg">
    <mask id="mask0_782_2429" style="mask-type:luminance" maskUnits="userSpaceOnUse" x="0" y="0" width="20" height="20">
        <path d="M20 0H0V20H20V0Z" fill="white"/>
    </mask>
    <g mask="url(#mask0_782_2429)">
        <path d="M9.56334 12.5C9.34233 12.5 9.13036 12.5878 8.97408 12.7441C8.8178 12.9004 8.73 13.1124 8.73 13.3334V15.8334C8.73 16.4964 8.46661 17.1322 7.99776 17.6011C7.52893 18.07 6.89304 18.3334 6.23 18.3334H4.16666C3.50363 18.3334 2.86774 18.07 2.3989 17.6011C1.93006 17.1322 1.66666 16.4964 1.66666 15.8334V4.16666C1.66666 3.50362 1.93006 2.86774 2.3989 2.3989C2.86774 1.93006 3.50363 1.66666 4.16666 1.66666H6.23C6.89304 1.66666 7.52893 1.93006 7.99776 2.3989C8.46661 2.86774 8.73 3.50362 8.73 4.16666V6.66666C8.73 6.88768 8.8178 7.09964 8.97408 7.25593C9.13036 7.4122 9.34233 7.5 9.56334 7.5C9.78435 7.5 9.99631 7.4122 10.1526 7.25593C10.3089 7.09964 10.3967 6.88768 10.3967 6.66666V4.16666C10.3953 3.062 9.95594 2.00296 9.17481 1.22185C8.3937 0.440735 7.33466 0.00132321 6.23 0H4.16666C3.062 0.00132321 2.00296 0.440735 1.22185 1.22185C0.440735 2.00296 0.00132321 3.062 0 4.16666V15.8334C0.00132321 16.938 0.440735 17.997 1.22185 18.7781C2.00296 19.5592 3.062 19.9986 4.16666 20H6.23C7.33466 19.9986 8.3937 19.5592 9.17481 18.7781C9.95594 17.997 10.3953 16.938 10.3967 15.8334V13.3334C10.3967 13.1124 10.3089 12.9004 10.1526 12.7441C9.99631 12.5878 9.78435 12.5 9.56334 12.5Z" fill="#FF5836"/>
        <path d="M19.0561 8.23256L15.2345 4.4109C15.1576 4.33131 15.0657 4.26783 14.964 4.22415C14.8624 4.18048 14.753 4.15749 14.6424 4.15653C14.5317 4.15556 14.422 4.17665 14.3195 4.21855C14.2171 4.26045 14.1241 4.32233 14.0459 4.40058C13.9676 4.47881 13.9057 4.57186 13.8639 4.67428C13.8219 4.77669 13.8009 4.88643 13.8017 4.99708C13.8027 5.10771 13.8257 5.21706 13.8694 5.31874C13.9131 5.42041 13.9766 5.51236 14.0561 5.58924L17.6079 9.14174L5.00033 9.16674C4.77932 9.16674 4.56735 9.25454 4.41108 9.41081C4.25479 9.56709 4.16699 9.77905 4.16699 10.0001C4.16699 10.2211 4.25479 10.433 4.41108 10.5893C4.56735 10.7456 4.77932 10.8334 5.00033 10.8334L17.657 10.8076L14.0545 14.4109C13.9749 14.4878 13.9115 14.5798 13.8677 14.6814C13.8241 14.7831 13.8011 14.8924 13.8001 15.0031C13.7991 15.1138 13.8202 15.2235 13.8621 15.3259C13.9041 15.4283 13.966 15.5214 14.0442 15.5996C14.1224 15.6778 14.2155 15.7396 14.3179 15.7816C14.4202 15.8235 14.53 15.8446 14.6406 15.8436C14.7514 15.8426 14.8606 15.8196 14.9624 15.776C15.064 15.7323 15.156 15.6689 15.2329 15.5893L19.0545 11.7676C19.5234 11.299 19.787 10.6633 19.7874 10.0004C19.7876 9.3375 19.5246 8.70161 19.0561 8.23256Z" fill="#FF5836"/>
    </g>
</svg>
