<svg width="20" height="20" viewBox="0 0 20 20" fill="none" xmlns="http://www.w3.org/2000/svg">
    <path d="M7.36694 11.9618L9.17943 8.94178L2.5111 6.71844C2.02527 6.55678 1.4911 6.75344 1.22777 7.19344L0.261935 8.80261C-0.293898 9.72928 0.151101 10.9318 1.1761 11.2734L5.41027 12.6851C6.1511 12.9318 6.96443 12.6309 7.3661 11.9618H7.36694ZM9.17943 20.0001V12.1809L8.7961 12.8193C8.17777 13.8493 7.09277 14.4401 5.95027 14.4401C5.5961 14.4401 5.23693 14.3843 4.8836 14.2659L1.67943 13.1984V14.5759C1.67943 16.3693 2.82693 17.9618 4.5286 18.5284L8.22443 19.7601C8.5361 19.8609 8.8561 19.9443 9.17943 20.0001ZM19.7794 8.83011L18.8153 7.22344C18.5411 6.76594 17.9861 6.56094 17.4803 6.72928L10.8461 8.94094L12.6586 11.9609C13.0603 12.6309 13.8736 12.9318 14.6144 12.6843L18.8794 11.2626C19.8886 10.9259 20.3269 9.74261 19.7794 8.83011ZM14.0753 14.4409C12.9328 14.4409 11.8478 13.8509 11.2294 12.8201L10.8461 12.1818V19.9968C11.1978 19.9351 11.5461 19.8451 11.8761 19.7351H11.8844L15.4969 18.5301C17.1986 17.9626 18.3461 16.3709 18.3461 14.5776V13.1993L15.1419 14.2676C14.7886 14.3859 14.4294 14.4409 14.0753 14.4409ZM15.9394 5.19428C15.8728 5.47428 15.6661 5.70011 15.3928 5.79094L10.3286 7.47844C10.2428 7.50678 10.1536 7.52178 10.0653 7.52178C9.97694 7.52178 9.88694 7.50761 9.80194 7.47844L6.73277 6.43178L11.0736 2.10678C11.7253 1.45428 12.7819 1.45511 13.4319 2.10511L15.7194 4.41344C15.9228 4.61844 16.0053 4.91344 15.9386 5.19428H15.9394ZM4.04277 5.63011C3.76693 5.53928 3.55943 5.30928 3.49443 5.02594C3.42943 4.74261 3.5161 4.44678 3.72443 4.24344L7.5786 0.480944C8.22027 -0.16239 9.2786 -0.160723 9.92777 0.488444L10.1803 0.740944C10.0753 0.823444 9.96694 0.899277 9.8711 0.99511L4.94277 5.90678L4.04277 5.63011Z" fill="#C4C4C4"/>
</svg>
