<svg width="24" height="24" viewBox="0 0 24 24" fill="none" xmlns="http://www.w3.org/2000/svg">
    <g clip-path="url(#clip0_963_2178)">
        <mask id="mask0_963_2178" style="mask-type:luminance" maskUnits="userSpaceOnUse" x="0" y="0" width="24" height="24">
            <path d="M24 0H0V24H24V0Z" fill="white"/>
        </mask>
        <g mask="url(#mask0_963_2178)">
            <path d="M21 4.00001H17.9C17.6679 2.87142 17.0538 1.85734 16.1612 1.12872C15.2687 0.400091 14.1522 0.00145452 13 0H11C9.84781 0.00145452 8.73132 0.400091 7.83875 1.12872C6.94619 1.85734 6.3321 2.87142 6.10001 4.00001H3.00001C2.73479 4.00001 2.48043 4.10535 2.2929 4.29289C2.10536 4.48042 2 4.73478 2 4.99999C2 5.26521 2.10536 5.51957 2.2929 5.70711C2.48043 5.89464 2.73479 6 3.00001 6H4.00001V19C4.00159 20.3256 4.52888 21.5964 5.46623 22.5338C6.40357 23.4711 7.67441 23.9984 9 24H15C16.3256 23.9984 17.5964 23.4711 18.5337 22.5338C19.4711 21.5964 19.9985 20.3256 20 19V6H21C21.2652 6 21.5196 5.89464 21.7071 5.70711C21.8946 5.51957 21.9999 5.26521 21.9999 4.99999C21.9999 4.73478 21.8946 4.48042 21.7071 4.29289C21.5196 4.10535 21.2652 4.00001 21 4.00001ZM11 1.99999H13C13.6203 2.00076 14.2251 2.19338 14.7316 2.55144C15.2381 2.90951 15.6215 3.41549 15.8289 4.00001H8.171C8.37858 3.41549 8.76191 2.90951 9.26838 2.55144C9.77487 2.19338 10.3797 2.00076 11 1.99999ZM18 19C18 19.7957 17.684 20.5587 17.1213 21.1213C16.5587 21.684 15.7956 22 15 22H9C8.20436 22 7.4413 21.684 6.87869 21.1213C6.31607 20.5587 6 19.7957 6 19V6H18V19Z" fill="black"/>
            <path d="M10 18.0003C10.2652 18.0003 10.5196 17.8948 10.7071 17.7073C10.8947 17.5198 11 17.2654 11 17.0002V11.0002C11 10.735 10.8947 10.4807 10.7071 10.2931C10.5196 10.1056 10.2652 10.0002 10 10.0002C9.73479 10.0002 9.48044 10.1056 9.29289 10.2931C9.10536 10.4807 9 10.735 9 11.0002V17.0002C9 17.2654 9.10536 17.5198 9.29289 17.7073C9.48044 17.8948 9.73479 18.0003 10 18.0003Z" fill="black"/>
            <path d="M14 18.0003C14.2652 18.0003 14.5196 17.8948 14.7071 17.7073C14.8946 17.5198 15 17.2654 15 17.0002V11.0002C15 10.735 14.8946 10.4807 14.7071 10.2931C14.5196 10.1056 14.2652 10.0002 14 10.0002C13.7348 10.0002 13.4804 10.1056 13.2929 10.2931C13.1054 10.4807 13 10.735 13 11.0002V17.0002C13 17.2654 13.1054 17.5198 13.2929 17.7073C13.4804 17.8948 13.7348 18.0003 14 18.0003Z" fill="black"/>
        </g>
    </g>
    <defs>
        <clipPath id="clip0_963_2178">
            <rect width="24" height="24" fill="white"/>
        </clipPath>
    </defs>
</svg>
