<svg width="18" height="18" viewBox="0 0 18 18" fill="none" xmlns="http://www.w3.org/2000/svg">
    <circle cx="9" cy="9" r="9" fill="#FE5000"/>
    <circle cx="9" cy="9" r="7" fill="white"/>
    <mask id="mask0_967_1856" style="mask-type:alpha" maskUnits="userSpaceOnUse" x="0" y="0" width="18" height="18">
        <circle cx="9" cy="9" r="8.4" fill="#D9D9D9" stroke="#8B8B8B" stroke-width="1.2"/>
    </mask>
    <g mask="url(#mask0_967_1856)">
        <path d="M13.6667 1H4.33334C2.49331 1.00222 1.00222 2.49331 1 4.33334V13.6667C1.00222 15.5067 2.49331 16.9978 4.33334 17H13.6667C15.5067 16.9978 16.9978 15.5067 17 13.6667V4.33334C16.9978 2.49331 15.5067 1.00222 13.6667 1ZM14.3333 6.386L8.164 12.5553C7.64341 13.0762 6.79919 13.0763 6.27838 12.5557C6.27825 12.5556 6.2785 12.5559 6.27838 12.5557L3.66666 9.94469C3.40578 9.68381 3.40578 9.26088 3.66666 9.00003C3.92753 8.73919 4.35047 8.73916 4.61131 9.00003L7.22197 11.6107L13.392 5.44134C13.6528 5.18141 14.075 5.18216 14.335 5.443C14.5949 5.70387 14.5942 6.12606 14.3333 6.386Z" fill="#FE5000"/>
    </g>
</svg>
