<svg width="40" height="40" viewBox="0 0 40 40" fill="none" xmlns="http://www.w3.org/2000/svg">
    <rect width="40" height="40" rx="8" fill="#EFFFE8"/>
    <g clip-path="url(#clip0_756_13026)">
        <path d="M25.1783 17.5817C25.5008 17.91 25.4958 18.4375 25.1667 18.76L21.4783 22.3808C20.8258 23.0208 19.9858 23.34 19.145 23.34C18.3133 23.34 17.4817 23.0267 16.8317 22.3992L15.2492 20.8433C14.9208 20.5208 14.9167 19.9933 15.2392 19.665C15.5608 19.3358 16.09 19.3317 16.4175 19.655L17.995 21.2058C18.6417 21.8308 19.6625 21.8275 20.3125 21.1908L24 17.5708C24.3275 17.2475 24.8533 17.2533 25.1783 17.5817ZM30 20C30 25.5142 25.5142 30 20 30C14.4858 30 10 25.5142 10 20C10 14.4858 14.4858 10 20 10C25.5142 10 30 14.4858 30 20ZM28.3333 20C28.3333 15.405 24.595 11.6667 20 11.6667C15.405 11.6667 11.6667 15.405 11.6667 20C11.6667 24.595 15.405 28.3333 20 28.3333C24.595 28.3333 28.3333 24.595 28.3333 20Z" fill="#12CA00"/>
    </g>
    <defs>
        <clipPath id="clip0_756_13026">
            <rect width="20" height="20" fill="white" transform="translate(10 10)"/>
        </clipPath>
    </defs>
</svg>
