<svg width="40" height="40" viewBox="0 0 40 40" fill="none" xmlns="http://www.w3.org/2000/svg">
    <rect width="40" height="40" rx="8" fill="#FFFDE5"/>
    <g clip-path="url(#clip0_756_12824)">
        <path d="M29.7563 22.7442C29.6 22.588 29.3881 22.5002 29.1671 22.5002C28.9462 22.5002 28.7342 22.588 28.578 22.7442L26.2505 25.0717L23.923 22.7442C23.7658 22.5924 23.5553 22.5084 23.3368 22.5103C23.1183 22.5122 22.9093 22.5999 22.7548 22.7544C22.6003 22.9089 22.5126 23.1179 22.5107 23.3364C22.5088 23.5549 22.5928 23.7654 22.7446 23.9226L25.0721 26.2501L22.7446 28.5776C22.665 28.6544 22.6016 28.7464 22.5579 28.8481C22.5142 28.9497 22.4912 29.0591 22.4903 29.1697C22.4893 29.2804 22.5104 29.3901 22.5523 29.4925C22.5942 29.5949 22.6561 29.688 22.7343 29.7662C22.8126 29.8445 22.9056 29.9064 23.008 29.9483C23.1104 29.9902 23.2202 30.0112 23.3308 30.0103C23.4415 30.0093 23.5508 29.9863 23.6525 29.9427C23.7541 29.899 23.8461 29.8355 23.923 29.7559L26.2505 27.4284L28.578 29.7559C28.7351 29.9077 28.9456 29.9917 29.1641 29.9898C29.3826 29.9879 29.5917 29.9003 29.7462 29.7457C29.9007 29.5912 29.9883 29.3822 29.9902 29.1637C29.9921 28.9452 29.9081 28.7347 29.7563 28.5776L27.4288 26.2501L29.7563 23.9226C29.9125 23.7663 30.0003 23.5544 30.0003 23.3334C30.0003 23.1124 29.9125 22.9005 29.7563 22.7442Z" fill="#FEBE00"/>
        <path d="M20 28.3333C18.3518 28.3333 16.7407 27.8446 15.3703 26.9289C13.9998 26.0132 12.9317 24.7118 12.301 23.189C11.6703 21.6663 11.5053 19.9908 11.8268 18.3743C12.1483 16.7577 12.942 15.2729 14.1074 14.1074C15.2729 12.942 16.7577 12.1483 18.3743 11.8268C19.9908 11.5053 21.6663 11.6703 23.189 12.301C24.7118 12.9317 26.0132 13.9998 26.9289 15.3703C27.8446 16.7407 28.3333 18.3518 28.3333 20C28.3333 20.221 28.4211 20.433 28.5774 20.5893C28.7337 20.7455 28.9457 20.8333 29.1667 20.8333C29.3877 20.8333 29.5996 20.7455 29.7559 20.5893C29.9122 20.433 30 20.221 30 20C30 18.0222 29.4135 16.0888 28.3147 14.4443C27.2159 12.7998 25.6541 11.5181 23.8268 10.7612C21.9996 10.0043 19.9889 9.8063 18.0491 10.1922C16.1093 10.578 14.3275 11.5304 12.9289 12.9289C11.5304 14.3275 10.578 16.1093 10.1922 18.0491C9.8063 19.9889 10.0043 21.9996 10.7612 23.8268C11.5181 25.6541 12.7998 27.2159 14.4443 28.3147C16.0888 29.4135 18.0222 30 20 30C20.221 30 20.433 29.9122 20.5893 29.7559C20.7455 29.5996 20.8333 29.3877 20.8333 29.1667C20.8333 28.9457 20.7455 28.7337 20.5893 28.5774C20.433 28.4211 20.221 28.3333 20 28.3333Z" fill="#FEBE00"/>
        <path d="M19.9998 15C19.7788 15 19.5668 15.0878 19.4106 15.2441C19.2543 15.4004 19.1665 15.6123 19.1665 15.8333V19.655L16.9107 21.9108C16.8311 21.9877 16.7676 22.0797 16.7239 22.1813C16.6802 22.283 16.6572 22.3924 16.6563 22.503C16.6553 22.6136 16.6764 22.7234 16.7183 22.8258C16.7602 22.9282 16.8221 23.0213 16.9003 23.0995C16.9786 23.1777 17.0716 23.2396 17.174 23.2815C17.2764 23.3234 17.3862 23.3445 17.4968 23.3435C17.6075 23.3426 17.7168 23.3196 17.8185 23.2759C17.9202 23.2322 18.0121 23.1688 18.089 23.0892L20.589 20.5892C20.7453 20.4329 20.8331 20.221 20.8332 20V15.8333C20.8332 15.6123 20.7454 15.4004 20.5891 15.2441C20.4328 15.0878 20.2208 15 19.9998 15Z" fill="#FEBE00"/>
    </g>
    <defs>
        <clipPath id="clip0_756_12824">
            <rect width="20" height="20" fill="white" transform="translate(10 10)"/>
        </clipPath>
    </defs>
</svg>
