<svg width="40" height="40" viewBox="0 0 40 40" fill="none" xmlns="http://www.w3.org/2000/svg">
    <rect width="40" height="40" rx="8" fill="#F5F5F5"/>
    <g clip-path="url(#clip0_756_12570)">
        <mask id="mask0_756_12570" style="mask-type:luminance" maskUnits="userSpaceOnUse" x="10" y="10" width="20" height="20">
            <path d="M30 10H10V30H30V10Z" fill="white"/>
        </mask>
        <g mask="url(#mask0_756_12570)">
            <path d="M20 10C18.0222 10 16.0888 10.5865 14.4443 11.6853C12.7998 12.7841 11.5181 14.3459 10.7612 16.1732C10.0043 18.0004 9.8063 20.0111 10.1922 21.9509C10.578 23.8908 11.5304 25.6725 12.9289 27.0711C14.3275 28.4696 16.1093 29.422 18.0491 29.8079C19.9889 30.1938 21.9996 29.9956 23.8269 29.2388C25.6541 28.4819 27.2159 27.2003 28.3148 25.5557C29.4135 23.9113 30 21.9778 30 20C29.9971 17.3487 28.9426 14.8068 27.0679 12.9321C25.1931 11.0574 22.6512 10.0029 20 10ZM20 28.3334C18.3518 28.3334 16.7407 27.8446 15.3702 26.9289C13.9998 26.0133 12.9317 24.7118 12.301 23.189C11.6703 21.6663 11.5052 19.9908 11.8268 18.3743C12.1483 16.7577 12.942 15.2729 14.1075 14.1075C15.2729 12.942 16.7578 12.1483 18.3743 11.8268C19.9908 11.5052 21.6663 11.6703 23.189 12.301C24.7118 12.9317 26.0133 13.9998 26.9289 15.3702C27.8446 16.7407 28.3334 18.3518 28.3334 20C28.3309 22.2094 27.4521 24.3276 25.8899 25.8899C24.3276 27.4521 22.2094 28.3309 20 28.3334Z" fill="#262626"/>
            <path d="M20 15C19.779 15 19.5671 15.0878 19.4108 15.2441C19.2545 15.4004 19.1667 15.6123 19.1667 15.8333V19.4375L16.3575 21.1975C16.1697 21.3149 16.0361 21.502 15.9863 21.7179C15.9364 21.9337 15.9743 22.1605 16.0917 22.3483C16.2091 22.5362 16.3962 22.6697 16.6121 22.7196C16.8279 22.7695 17.0547 22.7315 17.2425 22.6141L20.4425 20.6142C20.5634 20.5384 20.6629 20.4329 20.7313 20.3077C20.7997 20.1825 20.8349 20.0418 20.8334 19.8992V15.8333C20.8334 15.6123 20.7456 15.4004 20.5893 15.2441C20.433 15.0878 20.2211 15 20 15Z" fill="#262626"/>
        </g>
    </g>
    <defs>
        <clipPath id="clip0_756_12570">
            <rect width="20" height="20" fill="white" transform="translate(10 10)"/>
        </clipPath>
    </defs>
</svg>
