<svg width="41" height="40" viewBox="0 0 41 40" fill="none" xmlns="http://www.w3.org/2000/svg">
    <g clip-path="url(#clip0_1006_4234)">
        <path d="M18.8333 21.6665V11.6665C18.8333 10.7498 19.5833 9.99984 20.5 9.99984C21.4167 9.99984 22.1667 10.7498 22.1667 11.6665V21.6665C22.1667 22.5832 21.4167 23.3332 20.5 23.3332C19.5833 23.3332 18.8333 22.5832 18.8333 21.6665ZM20.5 24.9998C19.1167 24.9998 18 26.1165 18 27.4998C18 28.8832 19.1167 29.9998 20.5 29.9998C21.8833 29.9998 23 28.8832 23 27.4998C23 26.1165 21.8833 24.9998 20.5 24.9998ZM39.8 33.1332C38.6334 35.3832 36.1833 36.6665 33.1167 36.6665H7.90001C4.81668 36.6665 2.38335 35.3832 1.21668 33.1332C0.0333467 30.8665 0.36668 27.9665 2.05001 25.5332L15.45 4.33317C16.6333 2.63317 18.5 1.6665 20.5 1.6665C22.5 1.6665 24.3667 2.63317 25.5 4.28317L38.9667 25.5665C40.65 27.9998 40.9667 30.8832 39.7833 33.1332H39.8ZM36.2167 27.4332C36.2167 27.4332 36.1833 27.3998 36.1833 27.3665L22.7333 6.1165C22.25 5.43317 21.4167 4.99984 20.5 4.99984C19.5833 4.99984 18.75 5.43317 18.2333 6.18317L4.81668 27.3665C3.78335 28.8332 3.55001 30.4332 4.15001 31.5832C4.73335 32.7165 6.06668 33.3332 7.88335 33.3332H33.0833C34.9 33.3332 36.2333 32.7165 36.8167 31.5832C37.4167 30.4332 37.1833 28.8332 36.2 27.4332H36.2167Z" fill="#FF2A0C"/>
    </g>
    <defs>
        <clipPath id="clip0_1006_4234">
            <rect width="40" height="40" fill="white" transform="translate(0.5)"/>
        </clipPath>
    </defs>
</svg>
